# xmcd CD database file
#
# Track frame offsets:
#	150
#	30060
#	40465
#	70515
#	103889
#
# Disc length: 1919 seconds
#
# Revision: 0
# Processed by: cddbd v1.5.1PL0 Copyright (c) Steve Scherf et al.
# Submitted via: CDex 1.51
#
DISCID=35077d05
DTITLE=Jimmy Smith - Respect
DYEAR=1967
DGENRE=Jazz
TTITLE0=Mercy, Mercy, Mercy
TTITLE1=Respect
TTITLE2=Funky Broadway
TTITLE3=T-Bone Steak
TTITLE4=Get Out Of My Life
EXTD=YEAR: 1967
EXTT0=
EXTT1=
EXTT2=
EXTT3=
EXTT4=
PLAYORDER=
